<svg width="512" height="512" xmlns="http://www.w3.org/2000/svg">

 <g>
  <title>Layer 1</title>
  <rect id="svg_1" fill="#00843d" height="512" width="512"/>
  <rect id="svg_2" fill="#FF4B55" height="512" width="134.74" x="44.789"/>
  <polygon id="svg_3" fill="#F5F5F5" points="166.053,58.386 139.105,80.842 85.211,80.842 58.263,58.386 58.263,35.93 85.211,13.474   139.105,13.474 166.053,35.93 "/>
  <g id="svg_4">
   <polygon id="svg_5" fill="#73AF00" points="166.053,247.018 139.105,269.474 85.211,269.474 58.263,247.018 58.263,224.561    85.211,202.105 139.105,202.105 166.053,224.561  "/>
   <polygon id="svg_6" fill="#73AF00" points="166.053,152.702 139.105,175.158 85.211,175.158 58.263,152.702 58.263,130.246    85.211,107.789 139.105,107.789 166.053,130.246  "/>
   <polygon id="svg_7" fill="#73AF00" points="166.053,341.333 139.105,363.789 85.211,363.789 58.263,341.333 58.263,318.877    85.211,296.421 139.105,296.421 166.053,318.877  "/>
  </g>
  <g id="svg_8">
   <polygon id="svg_9" fill="#FFB400" points="44.789,67.368 71.737,94.316 44.789,121.263  "/>
   <polygon id="svg_10" fill="#FFB400" points="179.526,121.263 152.579,94.316 179.526,67.368  "/>
   <polygon id="svg_11" fill="#FFB400" points="44.789,161.684 71.737,188.632 44.789,215.579  "/>
   <polygon id="svg_12" fill="#FFB400" points="179.526,215.579 152.579,188.632 179.526,161.684  "/>
   <polygon id="svg_13" fill="#FFB400" points="44.789,256 71.737,282.947 44.789,309.895  "/>
   <polygon id="svg_14" fill="#FFB400" points="179.526,309.895 152.579,282.947 179.526,256  "/>
   <polygon id="svg_15" fill="#FFB400" points="44.789,350.316 71.737,377.263 44.789,404.211  "/>
   <polygon id="svg_16" fill="#FFB400" points="179.526,404.211 152.579,377.263 179.526,350.316  "/>
   <polygon id="svg_17" fill="#FFB400" points="44.789,0 71.737,0 44.789,26.947  "/>
   <polygon id="svg_18" fill="#FFB400" points="179.526,26.947 152.579,0 179.526,0  "/>
   <rect id="svg_19" fill="#FFB400" height="67.37" width="13.474" y="107.79" x="105.42"/>
  </g>
  <rect id="svg_20" fill="#FF4B55" height="13.474" width="53.894" y="134.74" x="85.21"/>
  <g id="svg_21">
   <polygon id="svg_22" fill="#FFB400" points="152.579,119.017 139.105,107.789 139.105,175.158 152.579,163.929  "/>
   <polygon id="svg_23" fill="#FFB400" points="71.737,163.929 85.211,175.157 85.211,107.79 71.737,119.017  "/>
   <polygon id="svg_24" fill="#FFB400" points="112.158,13.474 85.211,13.474 58.263,35.929 58.263,47.158 112.158,47.158  "/>
   <polygon id="svg_25" fill="#FFB400" points="112.158,80.842 139.104,80.842 166.053,58.387 166.053,47.158 112.158,47.158  "/>
  </g>
  <polygon id="svg_26" fill="#FF4B55" points="112.158,67.368 85.211,47.237 112.158,26.947 139.105,47.237 "/>
  <g id="svg_27">
   <polygon id="svg_28" fill="#73AF00" points="112.158,67.368 139.105,47.237 139,47.158 112.158,47.158  "/>
   <polygon id="svg_29" fill="#73AF00" points="112.158,47.158 112.158,26.947 85.316,47.158  "/>
  </g>
  <rect id="svg_30" fill="#FF4B55" height="40.42" width="53.895" y="215.58" x="85.21"/>
  <rect id="svg_31" fill="#FFB400" height="13.474" width="13.474" y="229.05" x="139.1"/>
  <rect id="svg_32" fill="#F5F5F5" height="13.474" width="13.474" y="229.05" x="105.42"/>
  <rect id="svg_33" fill="#FF4B55" height="13.474" width="13.474" y="309.89" x="105.42"/>
  <g id="svg_34">
   <rect id="svg_35" fill="#FFB400" height="13.474" width="13.474" y="323.37" x="125.63"/>
   <rect id="svg_36" fill="#FFB400" height="13.474" width="13.474" y="323.37" x="85.21"/>
  </g>
  <rect id="svg_37" fill="#FF4B55" height="13.474" width="13.474" y="336.84" x="105.42"/>
  <rect id="svg_38" fill="#FFB400" height="13.474" width="13.474" y="229.05" x="71.74"/>
  <polygon id="svg_39" fill="#F5F5F5" points="166.053,435.649 139.105,458.105 85.211,458.105 58.263,435.649 58.263,413.193   85.211,390.737 139.105,390.737 166.053,413.193 "/>
  <g id="svg_40">
   <polygon id="svg_41" fill="#FFB400" points="112.158,390.737 85.211,390.737 58.263,413.192 58.263,424.421 112.158,424.421  "/>
   <polygon id="svg_42" fill="#FFB400" points="112.158,458.105 139.104,458.105 166.053,435.65 166.053,424.421 112.158,424.421  "/>
  </g>
  <polygon id="svg_43" fill="#FF4B55" points="139.105,431.158 112.158,444.632 85.211,431.158 85.211,417.684 112.158,404.211   139.105,417.684 "/>
  <g id="svg_44">
   <path id="svg_45" fill="#F5F5F5" d="m364.384,73.366c-1.435,-0.705 -2.733,1.162 -1.57,2.259c15.248,14.389 24.884,34.595 24.884,57.134c0,44.274 -35.587,79.795 -79.346,79.795c-8.078,0 -15.856,-1.26 -23.195,-3.553c-1.521,-0.475 -2.504,1.565 -1.195,2.474c12.793,8.894 28.215,14.209 45.047,14.209c44.339,0 80.569,-35.524 80.569,-80.44c0,-31.568 -18.528,-58.771 -45.194,-71.878z"/>
   <path id="svg_46" fill="#F5F5F5" d="m254.737,125.351l-3.297,9.324l7.754,6.138c1.004,0.795 0.419,2.41 -0.861,2.377l-9.886,-0.254l-3.441,9.272c-0.445,1.2 -2.163,1.143 -2.527,-0.085l-2.813,-9.481l-9.881,-0.407c-1.279,-0.053 -1.755,-1.704 -0.7,-2.429l8.148,-5.605l-2.666,-9.523c-0.345,-1.233 1.078,-2.196 2.094,-1.417l7.849,6.017l8.233,-5.478c1.066,-0.711 2.421,0.344 1.994,1.551z"/>
   <path id="svg_47" fill="#F5F5F5" d="m294.78,145.575l-3.297,9.324l7.754,6.138c1.004,0.795 0.419,2.41 -0.861,2.377l-9.886,-0.254l-3.441,9.272c-0.445,1.2 -2.163,1.143 -2.527,-0.085l-2.813,-9.481l-9.881,-0.407c-1.279,-0.053 -1.755,-1.704 -0.7,-2.429l8.148,-5.605l-2.666,-9.523c-0.345,-1.233 1.078,-2.196 2.094,-1.417l7.849,6.017l8.233,-5.478c1.065,-0.712 2.421,0.344 1.994,1.551z"/>
   <path id="svg_48" fill="#F5F5F5" d="m294.375,103.914l-3.297,9.324l7.754,6.138c1.004,0.795 0.419,2.41 -0.861,2.377l-9.886,-0.254l-3.441,9.272c-0.445,1.2 -2.163,1.143 -2.527,-0.085l-2.813,-9.481l-9.881,-0.407c-1.279,-0.053 -1.755,-1.704 -0.7,-2.429l8.148,-5.605l-2.666,-9.523c-0.345,-1.233 1.078,-2.196 2.094,-1.417l7.849,6.017l8.233,-5.478c1.066,-0.712 2.421,0.344 1.994,1.551z"/>
   <path id="svg_49" fill="#F5F5F5" d="m295.739,63.703l-3.297,9.324l7.754,6.138c1.004,0.795 0.419,2.41 -0.861,2.377l-9.886,-0.254l-3.441,9.272c-0.445,1.2 -2.163,1.143 -2.527,-0.085l-2.813,-9.481l-9.881,-0.407c-1.279,-0.053 -1.755,-1.704 -0.7,-2.429l8.148,-5.605l-2.666,-9.523c-0.345,-1.233 1.078,-2.196 2.094,-1.417l7.849,6.017l8.233,-5.478c1.066,-0.712 2.421,0.344 1.994,1.551z"/>
   <path id="svg_50" fill="#F5F5F5" d="m334.973,83.927l-3.297,9.324l7.754,6.138c1.004,0.795 0.419,2.41 -0.861,2.377l-9.886,-0.254l-3.441,9.272c-0.445,1.2 -2.163,1.143 -2.527,-0.085l-2.813,-9.481l-9.881,-0.407c-1.279,-0.053 -1.755,-1.704 -0.7,-2.429l8.148,-5.605l-2.666,-9.523c-0.345,-1.233 1.078,-2.196 2.094,-1.417l7.849,6.017l8.233,-5.478c1.065,-0.712 2.421,0.344 1.994,1.551z"/>
  </g>
  <g id="svg_51"/>
  <g id="svg_52"/>
  <g id="svg_53"/>
  <g id="svg_54"/>
  <g id="svg_55"/>
  <g id="svg_56"/>
  <g id="svg_57"/>
  <g id="svg_58"/>
  <g id="svg_59"/>
  <g id="svg_60"/>
  <g id="svg_61"/>
  <g id="svg_62"/>
  <g id="svg_63"/>
  <g id="svg_64"/>
  <g id="svg_65"/>
 </g>
</svg>